# xmcd
#
# Track frame offsets:
#	150
#	15118
#	26261
#	43419
#	52473
#	64151
#	78140
#	88207
#	99712
#	119506
#	136084
#	149382
#	169288
#	181036
#	193117
#	202940
#	216460
#	227929
#	238340
#	252228
#	272541
#	282875
#	293461
#	317197
#
# Disc length: 4440
#
# Revision: 2
# Processed by: cddbd v1.5.1PL0 Copyright (c) Steve Scherf et al.
# Submitted via: Media_Universe 3.0
# Normalized: r0:TDELIM( - ),TSWAP
#
DISCID=67115618
DTITLE=Various Artist - 100 Blues and Soul - CD 3
DYEAR=1998
DGENRE=Blues
TTITLE0=Billie Holiday - Georgia On my Mind
TTITLE1=Big Joe Williams - Bye Bye Baby Blues
TTITLE2=Howlin' Wolf - Blow Wind Blow
TTITLE3=Memphis Slim - Steppin' Out
TTITLE4=Canned Heat - Straight Ahead
TTITLE5=Ella fitzgerald - Darktown Strutters Ball
TTITLE6=John Lee Hooker - Dimples
TTITLE7=Lightnin' Hopkins - Lightnin's Boogie
TTITLE8=Howlin' Wolf - Howlin' For My Darlin'
TTITLE9=Mississipi John Burt - Coffee Blues
TTITLE10=Lead Belly - Frankie and Albert (part 1)
TTITLE11=Pinetop Perkins - Just keep On Drinkin'
TTITLE12=Jimmy Reed - Hush, Hush
TTITLE13=Lightning Slim - Rooster Blues
TTITLE14=Big Joe Turner - Morning, Noon and Night
TTITLE15=Muddy Waters - Hoochie Coochie Man
TTITLE16=Big Joe Williams - Ride in My New Car
TTITLE17=Billie Holiday - Lover Man
TTITLE18=Canned Heat - Louise
TTITLE19=Ella Fitzgerald - A foggy Day
TTITLE20=John Lee Hooker - Old Time Shimmy
TTITLE21=Lightnin' Hopkins - Nothin' but the Blues
TTITLE22=Howlin' Wolf - Rocking the Blues
TTITLE23=Mississipi John Hurt - Hot Time in the Old town tonight
EXTD=
EXTT0=
EXTT1=
EXTT2=
EXTT3=
EXTT4=
EXTT5=
EXTT6=
EXTT7=
EXTT8=
EXTT9=
EXTT10=
EXTT11=
EXTT12=
EXTT13=
EXTT14=
EXTT15=
EXTT16=
EXTT17=
EXTT18=
EXTT19=
EXTT20=
EXTT21=
EXTT22=
EXTT23=
PLAYORDER=
